<svg width="800" height="490" viewBox="0 0 800 490" fill="none" xmlns="http://www.w3.org/2000/svg">
<rect width="800" height="490" fill="white"/>
<g clip-path="url(#clip0_2142_94)">
<rect x="300" y="27" width="200" height="200" rx="30" fill="#241E1E"/>
<path d="M453.985 203.31C452.618 203.31 451.252 203.242 449.885 203.105C448.518 202.968 447.083 202.763 445.58 202.49C436.287 200.713 427.882 197.638 420.365 193.265C412.848 188.892 406.083 183.767 400.07 177.89C394.193 172.15 388.795 166.068 383.875 159.645C379.092 153.222 374.718 147.072 370.755 141.195C366.792 135.182 363.102 129.92 359.685 125.41C359.412 124.727 359.07 124.522 358.66 124.795C358.387 125.068 358.25 125.205 358.25 125.205C355.243 130.945 352.442 136.343 349.845 141.4C347.385 146.32 345.54 150.283 344.31 153.29C343.217 156.297 342.67 158.415 342.67 159.645C342.67 161.558 343.422 162.515 344.925 162.515C346.838 162.515 348.888 161.217 351.075 158.62C352.578 156.843 353.945 155.203 355.175 153.7C356.542 152.06 357.703 151.377 358.66 151.65C358.797 151.787 358.865 151.992 358.865 152.265C358.865 152.948 358.387 153.905 357.43 155.135C356.473 156.228 355.927 156.843 355.79 156.98C354.833 158.347 353.535 160.192 351.895 162.515C350.392 164.838 348.752 166.888 346.975 168.665C345.335 170.578 343.558 171.535 341.645 171.535C341.372 171.535 340.552 171.398 339.185 171.125C337.955 170.852 336.725 170.51 335.495 170.1C334.402 169.69 333.787 169.212 333.65 168.665C333.377 166.068 333.992 162.447 335.495 157.8C337.135 153.017 339.322 147.755 342.055 142.015C344.788 136.275 347.59 130.672 350.46 125.205C348.273 124.658 346.702 124.18 345.745 123.77C344.378 122.813 343.695 121.515 343.695 119.875C343.695 118.508 344.242 117.278 345.335 116.185C346.428 115.092 348.068 114.545 350.255 114.545C350.938 114.545 351.758 114.682 352.715 114.955C353.672 115.228 354.423 115.707 354.97 116.39C357.293 112.29 359.343 108.532 361.12 105.115C363.033 101.698 364.4 99.0333 365.22 97.12C366.04 95.6167 366.587 94.3867 366.86 93.43C367.133 92.3367 367.27 91.5167 367.27 90.97C367.27 90.15 367.133 89.4667 366.86 88.92C367.133 87.28 368.09 85.0933 369.73 82.36C371.507 79.6267 373.693 76.8933 376.29 74.16C378.887 71.4267 381.688 69.1717 384.695 67.395C387.702 65.4817 390.503 64.525 393.1 64.525C393.92 64.525 395.15 64.7983 396.79 65.345C398.567 65.755 400.207 66.4383 401.71 67.395C403.35 68.3517 404.375 69.7183 404.785 71.495C404.922 71.905 404.99 72.315 404.99 72.725C404.99 73.135 404.853 73.34 404.58 73.34C404.307 73.34 403.897 73.2717 403.35 73.135C402.94 72.8617 402.598 72.725 402.325 72.725C398.498 72.725 394.193 75.0483 389.41 79.695C384.763 84.205 379.98 90.0133 375.06 97.12C370.277 104.227 365.767 111.607 361.53 119.26C362.213 119.397 362.965 119.602 363.785 119.875C364.742 120.012 365.835 120.08 367.065 120.08C367.612 120.08 368.09 120.08 368.5 120.08C369.047 120.08 369.593 120.012 370.14 119.875C378.887 118.918 387.77 117.21 396.79 114.75C405.947 112.29 414.488 109.078 422.415 105.115C430.342 101.152 436.902 96.505 442.095 91.175C446.878 86.1183 449.27 80.925 449.27 75.595C449.27 71.6317 447.767 67.9417 444.76 64.525C441.753 61.1083 437.038 58.5117 430.615 56.735C426.788 55.6417 422.415 54.8217 417.495 54.275C412.712 53.7283 407.518 53.455 401.915 53.455C393.168 53.455 384.148 54.2067 374.855 55.71C365.698 57.2133 357.088 59.5367 349.025 62.68C340.962 65.6867 334.197 69.5133 328.73 74.16C323.263 78.8067 319.983 84.3417 318.89 90.765C318.48 94.045 319.095 96.6417 320.735 98.555C322.375 100.468 324.357 101.972 326.68 103.065C329.14 104.022 331.053 104.91 332.42 105.73C333.377 106.55 333.855 107.233 333.855 107.78C333.855 108.737 332.967 109.078 331.19 108.805C329.277 108.395 326.885 107.438 324.015 105.935C321.282 104.432 318.822 102.382 316.635 99.785C314.585 97.0517 313.56 93.9083 313.56 90.355C313.56 89.8083 313.56 89.2617 313.56 88.715C313.697 88.1683 313.833 87.6217 313.97 87.075C313.97 86.9383 313.902 86.5283 313.765 85.845C313.765 85.025 313.765 84.3417 313.765 83.795C314.585 79.5583 316.635 75.595 319.915 71.905C323.332 68.0783 327.158 64.73 331.395 61.86C335.768 58.8533 339.8 56.4617 343.49 54.685C349.913 51.5417 357.635 49.0817 366.655 47.305C375.675 45.3917 385.105 44.435 394.945 44.435C400.958 44.435 406.903 44.845 412.78 45.665C418.793 46.485 424.602 47.7833 430.205 49.56C437.995 52.1567 444.008 56.1883 448.245 61.655C452.618 66.985 454.6 72.5883 454.19 78.465C453.78 84.0683 451.798 89.125 448.245 93.635C444.828 98.145 440.387 102.108 434.92 105.525C429.59 108.805 423.645 111.675 417.085 114.135C410.662 116.458 404.17 118.372 397.61 119.875C392.28 120.968 386.677 121.857 380.8 122.54C374.923 123.223 369.388 123.702 364.195 123.975C370.072 131.218 375.88 138.53 381.62 145.91C387.497 153.153 393.715 159.987 400.275 166.41C406.972 172.833 414.283 178.3 422.21 182.81C430.137 187.457 439.088 190.737 449.065 192.65C451.115 193.06 453.233 193.265 455.42 193.265C458.973 193.265 462.458 192.718 465.875 191.625C469.428 190.532 472.367 188.823 474.69 186.5C477.013 184.177 478.175 181.102 478.175 177.275C478.175 176.592 478.107 175.908 477.97 175.225C477.97 174.542 477.902 173.858 477.765 173.175C477.765 172.902 477.697 172.697 477.56 172.56C477.56 172.423 477.56 172.287 477.56 172.15C477.56 170.92 478.038 170.305 478.995 170.305C480.362 170.305 481.25 171.33 481.66 173.38C482.07 175.43 482.275 177.343 482.275 179.12C482.275 181.17 482.07 183.083 481.66 184.86C481.387 186.637 480.977 188.277 480.43 189.78C479.2 193.607 476.057 196.818 471 199.415C466.08 202.012 460.408 203.31 453.985 203.31Z" fill="white"/>
</g>
<path d="M70.76 368.8L69.96 360.96L88.2 357.28L81.96 363.52C82.1733 362.56 82.44 360.96 82.76 358.72C83.08 356.373 83.4 354.027 83.72 351.68C84.04 349.227 84.2 347.467 84.2 346.4V276.8C84.2 275.627 84.04 273.92 83.72 271.68C83.5067 269.333 83.1867 266.987 82.76 264.64C82.44 262.293 82.1733 260.587 81.96 259.52L88.2 265.6L70.28 262.72L71.08 254.4C73.1067 254.507 75.3467 254.613 77.8 254.72C80.2533 254.827 82.5467 254.933 84.68 255.04C86.92 255.147 88.52 255.2 89.48 255.2L99.72 259.52C99.6133 260.373 99.4 262.027 99.08 264.48C98.8667 266.933 98.6 269.707 98.28 272.8C98.0667 275.893 97.96 278.827 97.96 281.6V341.6C97.96 344.373 98.0667 347.2 98.28 350.08C98.4933 352.853 98.76 355.467 99.08 357.92C99.4 360.267 99.6667 362.133 99.88 363.52L93.64 357.92L113.96 359.52L112.84 368H92.2C90.92 368 89.0533 368.053 86.6 368.16C84.1467 368.267 81.48 368.373 78.6 368.48C75.8267 368.587 73.2133 368.693 70.76 368.8ZM138.44 368C137.48 365.867 136.36 363.52 135.08 360.96C133.907 358.4 132.787 356.053 131.72 353.92C130.653 351.787 129.907 350.293 129.48 349.44L110.12 312.8L125.16 312.16C128.04 317.813 130.867 323.2 133.64 328.32C136.52 333.44 138.973 337.707 141 341.12C143.133 344.533 144.36 346.507 144.68 347.04C145.427 348.213 146.6 349.973 148.2 352.32C149.8 354.56 151.293 356.587 152.68 358.4L164.36 359.52L163.24 368H138.44ZM112.68 319.52C108.413 319.52 104.147 319.467 99.88 319.36C95.6133 319.253 91.3467 319.093 87.08 318.88V309.76C90.8133 310.187 94.5467 310.667 98.28 311.2C102.013 311.733 105.747 312 109.48 312C117.8 312 124.467 309.92 129.48 305.76C134.493 301.493 137 295.147 137 286.72C137 278.613 134.493 272.48 129.48 268.32C124.467 264.16 117.8 262.08 109.48 262.08C107.56 262.08 105.48 262.133 103.24 262.24C101 262.347 98.7067 262.56 96.36 262.88C94.12 263.093 91.8267 263.36 89.48 263.68V255.2C93.8533 255.2 98.28 255.093 102.76 254.88C107.24 254.56 111.667 254.4 116.04 254.4C123.4 254.4 129.693 255.627 134.92 258.08C140.147 260.427 144.147 264 146.92 268.8C149.8 273.6 151.24 279.573 151.24 286.72C151.24 293.653 149.48 299.573 145.96 304.48C142.547 309.387 137.907 313.12 132.04 315.68C126.173 318.24 119.72 319.52 112.68 319.52ZM202.178 369.6C195.031 369.6 189.378 367.787 185.218 364.16C181.058 360.427 178.978 355.467 178.978 349.28C178.978 343.733 180.738 339.147 184.258 335.52C187.884 331.787 193.271 329.333 200.418 328.16L228.418 323.52V331.36L202.338 336.32C199.138 336.853 196.631 338.08 194.818 340C193.004 341.92 192.098 344.267 192.098 347.04C192.098 351.093 193.111 354.293 195.138 356.64C197.271 358.88 200.258 360 204.098 360C209.751 360 214.658 358.187 218.818 354.56C223.084 350.933 225.591 346.453 226.338 341.12V318.56C226.338 310.88 225.058 305.173 222.498 301.44C219.938 297.6 216.098 295.68 210.978 295.68C208.738 295.68 206.338 295.893 203.778 296.32C201.218 296.747 198.818 297.333 196.578 298.08C194.338 298.827 192.631 299.627 191.458 300.48L196.418 293.6L194.498 305.6L194.658 312.16L185.378 312.64L183.778 291.36C186.978 290.507 190.178 289.813 193.378 289.28C196.578 288.747 199.778 288.373 202.978 288.16C206.178 287.84 209.378 287.68 212.578 287.68C222.071 287.68 228.738 290.293 232.578 295.52C236.418 300.64 238.338 309.493 238.338 322.08V341.76C238.338 346.56 238.604 350.773 239.138 354.4C239.778 357.92 240.311 360.693 240.738 362.72L235.458 357.92L251.138 359.68L250.178 368H230.178L226.978 349.92L229.858 349.44C229.644 352.427 228.204 355.52 225.538 358.72C222.978 361.813 219.618 364.427 215.458 366.56C211.404 368.587 206.978 369.6 202.178 369.6ZM289.069 407.04L279.149 403.04L278.829 401.76C280.642 398.987 282.242 396.267 283.629 393.6C285.015 391.04 286.295 388.267 287.469 385.28C288.749 382.4 290.029 379.147 291.309 375.52C292.695 371.893 294.242 367.68 295.949 362.88L296.269 372.8L270.989 314.56C269.495 311.04 267.789 307.573 265.869 304.16C263.949 300.747 262.029 297.333 260.109 293.92L267.789 300L254.989 297.28L255.789 288.96H290.349L290.829 297.28L273.389 299.04L277.229 293.28C278.082 296.373 278.935 299.573 279.789 302.88C280.642 306.08 281.709 309.227 282.989 312.32L301.549 357.28H297.389L313.709 314.56C314.989 311.147 316.109 307.68 317.069 304.16C318.029 300.533 318.935 296.96 319.789 293.44L323.629 299.52L306.189 296.48L306.989 288.96H338.829L339.309 297.28L325.389 299.36L332.909 293.6C331.095 297.547 329.229 301.44 327.309 305.28C325.389 309.12 323.682 313.067 322.189 317.12L289.069 407.04Z" fill="black"/>
<path d="M374.15 369.6C367.643 369.6 362.31 368.8 358.15 367.2C354.097 365.493 351.163 364.107 349.35 363.04V342.4L358.47 341.76V348.16C358.47 348.907 358.737 350.133 359.27 351.84C359.803 353.547 360.497 355.307 361.35 357.12C362.203 358.933 363.057 360.48 363.91 361.76L359.27 354.88C361.19 357.653 363.377 359.52 365.83 360.48C368.283 361.44 371.11 361.92 374.31 361.92C378.577 361.92 381.99 360.907 384.55 358.88C387.11 356.853 388.39 353.653 388.39 349.28C388.39 345.333 386.683 342.24 383.27 340C379.857 337.653 375.91 335.413 371.43 333.28C368.763 332 366.097 330.667 363.43 329.28C360.763 327.787 358.31 326.133 356.07 324.32C353.937 322.4 352.177 320.16 350.79 317.6C349.51 315.04 348.87 312 348.87 308.48C348.87 301.867 351.217 296.747 355.91 293.12C360.71 289.387 366.577 287.52 373.51 287.52C377.03 287.52 380.763 287.787 384.71 288.32C388.657 288.747 392.497 289.387 396.23 290.24L396.07 312.8L386.95 312.32V306.72C386.95 306.08 386.63 304.907 385.99 303.2C385.457 301.493 384.817 299.733 384.07 297.92C383.43 296 382.897 294.507 382.47 293.44L387.91 299.36C385.243 297.867 382.95 296.853 381.03 296.32C379.11 295.787 376.657 295.52 373.67 295.52C369.937 295.52 366.897 296.48 364.55 298.4C362.203 300.213 361.03 302.827 361.03 306.24C361.03 309.973 362.737 313.013 366.15 315.36C369.563 317.6 373.51 319.733 377.99 321.76C380.763 323.04 383.483 324.427 386.15 325.92C388.817 327.413 391.27 329.12 393.51 331.04C395.75 332.853 397.51 335.04 398.79 337.6C400.177 340.053 400.87 342.987 400.87 346.4C400.87 354.827 398.47 360.8 393.67 364.32C388.87 367.84 382.363 369.6 374.15 369.6ZM443.86 370.4C436.713 370.4 431.913 368.48 429.46 364.64C427.113 360.8 425.94 355.307 425.94 348.16V292L431.06 297.28H412.5L412.02 290.88C413.407 290.347 415.113 289.76 417.14 289.12C419.167 288.373 421.193 287.627 423.22 286.88C425.353 286.133 427.06 285.547 428.34 285.12L422.9 290.4C423.433 289.76 424.127 288.64 424.98 287.04C425.94 285.333 426.9 283.467 427.86 281.44C428.82 279.307 429.727 277.387 430.58 275.68C431.433 273.973 432.02 272.747 432.34 272L438.1 272.64V348.8C438.1 352.427 438.74 355.253 440.02 357.28C441.3 359.307 443.753 360.32 447.38 360.32C449.727 360.32 452.127 359.787 454.58 358.72C457.14 357.547 459.433 356.053 461.46 354.24L465.78 361.12C461.94 364.213 458.153 366.507 454.42 368C450.793 369.6 447.273 370.4 443.86 370.4ZM435.38 297.28V288.96H461.78L460.98 297.28H435.38ZM514.379 369.6C506.272 369.6 499.499 367.84 494.059 364.32C488.619 360.8 484.512 356 481.739 349.92C479.072 343.733 477.739 336.64 477.739 328.64C477.739 320.533 479.072 313.44 481.739 307.36C484.512 301.173 488.619 296.32 494.059 292.8C499.499 289.28 506.272 287.52 514.379 287.52C526.539 287.52 535.605 291.307 541.579 298.88C547.659 306.347 550.699 316.267 550.699 328.64C550.699 336.64 549.312 343.733 546.539 349.92C543.872 356.107 539.819 360.96 534.379 364.48C529.045 367.893 522.379 369.6 514.379 369.6ZM514.379 360.96C520.139 360.96 524.672 359.36 527.979 356.16C531.285 352.96 533.579 348.907 534.859 344C536.245 338.987 536.939 333.867 536.939 328.64C536.939 323.307 536.245 318.187 534.859 313.28C533.579 308.267 531.285 304.16 527.979 300.96C524.672 297.76 520.139 296.16 514.379 296.16C508.619 296.16 504.085 297.76 500.779 300.96C497.472 304.053 495.072 308.107 493.579 313.12C492.192 318.027 491.499 323.2 491.499 328.64C491.499 333.973 492.192 339.147 493.579 344.16C495.072 349.067 497.472 353.12 500.779 356.32C504.085 359.413 508.619 360.96 514.379 360.96ZM564.744 368.8L563.944 361.12L581.864 357.44L575.464 363.36C575.677 362.507 575.944 361.013 576.264 358.88C576.69 356.747 577.064 354.507 577.384 352.16C577.81 349.707 578.024 347.84 578.024 346.56V311.04C578.024 309.653 577.864 307.787 577.544 305.44C577.224 302.987 576.85 300.587 576.424 298.24C575.997 295.787 575.677 294.027 575.464 292.96L581.864 300.32L564.264 297.28L565.064 288.96H584.904L587.944 291.84L590.184 315.84L586.664 306.56C588.264 302.507 590.29 299.093 592.744 296.32C595.304 293.547 598.29 291.413 601.704 289.92C605.117 288.427 608.85 287.68 612.904 287.68C620.477 287.68 626.184 289.227 630.024 292.32C633.864 295.307 636.477 299.573 637.864 305.12C639.25 310.667 639.944 317.173 639.944 324.64V341.76C639.944 345.707 640.104 349.6 640.424 353.44C640.85 357.28 641.224 360.267 641.544 362.4L635.784 358.08L653.864 359.68L652.744 368H632.264C631.837 368 630.664 368.053 628.744 368.16C626.824 368.267 624.69 368.373 622.344 368.48C620.104 368.587 618.077 368.693 616.264 368.8L615.464 361.12L631.464 357.28L625.544 360.96C625.864 359.893 626.184 358.613 626.504 357.12C626.93 355.52 627.25 353.813 627.464 352C627.784 350.187 627.944 348.373 627.944 346.56V324.48C627.944 319.787 627.517 315.36 626.664 311.2C625.81 306.933 624.157 303.467 621.704 300.8C619.25 298.133 615.677 296.8 610.984 296.8C604.477 296.8 599.357 299.36 595.624 304.48C591.997 309.6 590.184 316.107 590.184 324V341.76C590.184 345.92 590.344 350.187 590.664 354.56C590.984 358.933 591.304 362.08 591.624 364L585.704 358.08L603.784 359.68L602.664 368H582.344C581.277 368 579.73 368.053 577.704 368.16C575.677 368.267 573.49 368.373 571.144 368.48C568.904 368.587 566.77 368.693 564.744 368.8ZM701.406 369.6C693.406 369.6 686.686 367.84 681.246 364.32C675.806 360.8 671.7 355.947 668.926 349.76C666.26 343.573 664.926 336.587 664.926 328.8C664.926 320.907 666.153 313.867 668.606 307.68C671.06 301.493 674.846 296.64 679.966 293.12C685.086 289.493 691.54 287.68 699.326 287.68C706.793 287.68 712.713 289.227 717.086 292.32C721.46 295.413 724.606 299.733 726.526 305.28C728.553 310.827 729.566 317.227 729.566 324.48L727.006 329.6H675.166V322.4L721.406 318.88L716.286 324.48C716.286 323.093 716.286 321.76 716.286 320.48C716.393 319.093 716.446 317.6 716.446 316C716.446 310.347 715.006 305.493 712.126 301.44C709.246 297.387 704.82 295.36 698.846 295.36C694.9 295.36 691.593 296.373 688.926 298.4C686.26 300.32 684.18 302.933 682.686 306.24C681.193 309.547 680.126 313.12 679.486 316.96C678.846 320.693 678.526 324.427 678.526 328.16C678.526 331.68 678.953 335.307 679.806 339.04C680.66 342.667 681.993 346.08 683.806 349.28C685.62 352.48 687.86 355.04 690.526 356.96C693.3 358.88 696.606 359.84 700.446 359.84C705.46 359.84 710.206 359.093 714.686 357.6C719.273 356 722.74 354.507 725.086 353.12L729.246 360.16C729.566 359.84 729.193 360.16 728.126 361.12C727.06 361.973 725.3 363.093 722.846 364.48C720.5 365.76 717.513 366.933 713.886 368C710.366 369.067 706.206 369.6 701.406 369.6Z" fill="#727272"/>
<path d="M85.5 452.25L85.3 449.9L90.1 448.55L88.1 449.8C88.3333 449.3 88.6 448.75 88.9 448.15C89.2333 447.517 89.55 446.85 89.85 446.15C90.1833 445.417 90.4667 444.7 90.7 444L99.55 416.75L102.3 416.25L112.65 444.45C112.95 445.383 113.317 446.3 113.75 447.2C114.217 448.1 114.633 448.95 115 449.75L112.9 448.5L117.75 449.35L117.5 452H112.4C112 452 111.4 452.017 110.6 452.05C109.8 452.083 108.933 452.117 108 452.15C107.1 452.183 106.25 452.217 105.45 452.25L105.3 449.9L110.6 448.3L109.2 449.95C109 448.75 108.783 447.617 108.55 446.55C108.317 445.45 107.983 444.35 107.55 443.25L100.1 422.35H101.15L93.7 445.6C93.4667 446.3 93.3167 447.033 93.25 447.8C93.1833 448.533 93.1167 449.233 93.05 449.9L91.5 448.6L96.75 449.35L96.5 452H92.25C91.85 452 91.25 452.017 90.45 452.05C89.6833 452.083 88.85 452.117 87.95 452.15C87.0833 452.183 86.2667 452.217 85.5 452.25ZM94.1 440.75V438.2H108.25V440.75H94.1ZM136.909 463.65L136.659 461.2L141.709 460.05L139.709 461.95C139.776 461.683 139.859 461.217 139.959 460.55C140.093 459.883 140.209 459.167 140.309 458.4C140.443 457.667 140.509 457.1 140.509 456.7V434.2C140.509 433.767 140.443 433.183 140.309 432.45C140.209 431.683 140.093 430.933 139.959 430.2C139.826 429.433 139.726 428.883 139.659 428.55L141.709 430.85L136.209 429.9L136.459 427.3H142.659L143.609 428.2L144.009 433.05L143.709 432.25C143.809 431.35 144.243 430.5 145.009 429.7C145.776 428.867 146.693 428.2 147.759 427.7C148.826 427.167 149.843 426.9 150.809 426.9C154.076 426.9 156.609 427.983 158.409 430.15C160.243 432.283 161.159 435.3 161.159 439.2C161.159 441.733 160.659 444.017 159.659 446.05C158.659 448.05 157.293 449.633 155.559 450.8C153.859 451.933 151.926 452.5 149.759 452.5C148.759 452.5 147.726 452.333 146.659 452C145.593 451.7 144.543 451.283 143.509 450.75L143.559 447.2C144.559 448.033 145.559 448.65 146.559 449.05C147.593 449.45 148.576 449.65 149.509 449.65C151.909 449.65 153.759 448.75 155.059 446.95C156.359 445.15 157.009 442.583 157.009 439.25C157.009 436.083 156.459 433.7 155.359 432.1C154.293 430.467 152.726 429.65 150.659 429.65C148.726 429.65 147.176 430.4 146.009 431.9C144.843 433.367 144.259 435.3 144.259 437.7V455.2C144.259 456.5 144.309 457.833 144.409 459.2C144.543 460.567 144.659 461.55 144.759 462.15L142.909 460.25L149.609 460.75L149.309 463.4H141.859C141.526 463.4 141.076 463.417 140.509 463.45C139.976 463.483 139.393 463.517 138.759 463.55C138.126 463.583 137.509 463.617 136.909 463.65ZM187.929 452.5C185.695 452.5 183.929 451.933 182.629 450.8C181.329 449.633 180.679 448.083 180.679 446.15C180.679 444.417 181.229 442.983 182.329 441.85C183.462 440.683 185.145 439.917 187.379 439.55L196.129 438.1V440.55L187.979 442.1C186.979 442.267 186.195 442.65 185.629 443.25C185.062 443.85 184.779 444.583 184.779 445.45C184.779 446.717 185.095 447.717 185.729 448.45C186.395 449.15 187.329 449.5 188.529 449.5C190.295 449.5 191.829 448.933 193.129 447.8C194.462 446.667 195.245 445.267 195.479 443.6V436.55C195.479 434.15 195.079 432.367 194.279 431.2C193.479 430 192.279 429.4 190.679 429.4C189.979 429.4 189.229 429.467 188.429 429.6C187.629 429.733 186.879 429.917 186.179 430.15C185.479 430.383 184.945 430.633 184.579 430.9L186.129 428.75L185.529 432.5L185.579 434.55L182.679 434.7L182.179 428.05C183.179 427.783 184.179 427.567 185.179 427.4C186.179 427.233 187.179 427.117 188.179 427.05C189.179 426.95 190.179 426.9 191.179 426.9C194.145 426.9 196.229 427.717 197.429 429.35C198.629 430.95 199.229 433.717 199.229 437.65V443.8C199.229 445.3 199.312 446.617 199.479 447.75C199.679 448.85 199.845 449.717 199.979 450.35L198.329 448.85L203.229 449.4L202.929 452H196.679L195.679 446.35L196.579 446.2C196.512 447.133 196.062 448.1 195.229 449.1C194.429 450.067 193.379 450.883 192.079 451.55C190.812 452.183 189.429 452.5 187.929 452.5ZM221.309 452.25L221.059 449.85L226.659 448.7L224.659 450.55C224.725 450.283 224.809 449.817 224.909 449.15C225.042 448.483 225.159 447.783 225.259 447.05C225.392 446.283 225.459 445.7 225.459 445.3V434.2C225.459 433.767 225.409 433.183 225.309 432.45C225.209 431.683 225.092 430.933 224.959 430.2C224.825 429.433 224.725 428.883 224.659 428.55L226.659 430.85L221.159 429.9L221.409 427.3H227.609L228.559 428.2L229.259 435.7L227.759 434.1C228.125 433.2 228.542 432.333 229.009 431.5C229.475 430.633 230.042 429.85 230.709 429.15C231.409 428.45 232.259 427.9 233.259 427.5C234.292 427.067 235.542 426.85 237.009 426.85C237.575 426.85 238.125 426.9 238.659 427C239.225 427.067 239.775 427.183 240.309 427.35L239.859 435.4L237.009 435.25V432.65C237.009 432.483 236.942 432.167 236.809 431.7C236.675 431.233 236.509 430.733 236.309 430.2C236.142 429.633 235.975 429.167 235.809 428.8L238.159 430.1C237.825 430.133 237.475 430.15 237.109 430.15C236.775 430.15 236.442 430.15 236.109 430.15C233.709 430.15 231.959 430.867 230.859 432.3C229.792 433.733 229.259 435.633 229.259 438V443.8C229.259 445.1 229.309 446.433 229.409 447.8C229.509 449.167 229.609 450.15 229.709 450.75L227.859 448.9L234.559 449.4L234.259 452H226.809C226.475 452 225.992 452.017 225.359 452.05C224.725 452.083 224.042 452.117 223.309 452.15C222.609 452.183 221.942 452.217 221.309 452.25ZM268.113 452.75C265.879 452.75 264.379 452.15 263.613 450.95C262.879 449.75 262.513 448.033 262.513 445.8V428.25L264.113 429.9H258.313L258.163 427.9C258.596 427.733 259.129 427.55 259.763 427.35C260.396 427.117 261.029 426.883 261.663 426.65C262.329 426.417 262.863 426.233 263.263 426.1L261.563 427.75C261.729 427.55 261.946 427.2 262.213 426.7C262.513 426.167 262.813 425.583 263.113 424.95C263.413 424.283 263.696 423.683 263.963 423.15C264.229 422.617 264.413 422.233 264.513 422L266.313 422.2V446C266.313 447.133 266.513 448.017 266.913 448.65C267.313 449.283 268.079 449.6 269.213 449.6C269.946 449.6 270.696 449.433 271.463 449.1C272.263 448.733 272.979 448.267 273.613 447.7L274.963 449.85C273.763 450.817 272.579 451.533 271.413 452C270.279 452.5 269.179 452.75 268.113 452.75ZM265.463 429.9V427.3H273.713L273.463 429.9H265.463ZM323.45 452.25L323.2 449.85L328.2 448.65L326.4 450.25C326.5 449.883 326.6 449.4 326.7 448.8C326.8 448.2 326.883 447.583 326.95 446.95C327.05 446.283 327.1 445.733 327.1 445.3V438.4C327.1 436.933 326.983 435.55 326.75 434.25C326.516 432.917 326.066 431.833 325.4 431C324.733 430.167 323.75 429.75 322.45 429.75C320.516 429.75 318.983 430.567 317.85 432.2C316.716 433.8 316.116 435.833 316.05 438.3L314.8 433.55C315.4 431.35 316.483 429.7 318.05 428.6C319.616 427.467 321.316 426.9 323.15 426.9C325.316 426.9 326.95 427.383 328.05 428.35C329.15 429.283 329.883 430.617 330.25 432.35C330.65 434.083 330.85 436.117 330.85 438.45V443.8C330.85 444.633 330.883 445.483 330.95 446.35C331.016 447.183 331.083 447.933 331.15 448.6C331.25 449.233 331.316 449.7 331.35 450L329.55 448.9L335.15 449.4L334.85 452H328.45C328.283 452 327.9 452.017 327.3 452.05C326.733 452.083 326.083 452.117 325.35 452.15C324.65 452.183 324.016 452.217 323.45 452.25ZM293.35 452.25L293.1 449.85L298.7 448.7L296.7 450.55C296.766 450.283 296.85 449.817 296.95 449.15C297.083 448.483 297.2 447.783 297.3 447.05C297.433 446.283 297.5 445.7 297.5 445.3V434.2C297.5 433.767 297.45 433.183 297.35 432.45C297.25 431.683 297.133 430.933 297 430.2C296.866 429.433 296.766 428.883 296.7 428.55L298.7 430.85L293.2 429.9L293.45 427.3H299.65L300.6 428.2L301.3 435.55V443.8C301.3 445.1 301.35 446.433 301.45 447.8C301.55 449.167 301.65 450.15 301.75 450.75L299.9 448.9L305.55 449.4L305.2 452H298.85C298.516 452 298.033 452.017 297.4 452.05C296.766 452.083 296.083 452.117 295.35 452.15C294.65 452.183 293.983 452.217 293.35 452.25ZM308.65 452.25L308.4 449.85L313.4 448.65L311.6 450.25C311.7 449.883 311.8 449.4 311.9 448.8C312 448.2 312.083 447.583 312.15 446.95C312.25 446.283 312.3 445.733 312.3 445.3V438.4C312.3 436.933 312.183 435.55 311.95 434.25C311.716 432.917 311.266 431.833 310.6 431C309.933 430.167 308.95 429.75 307.65 429.75C305.716 429.75 304.183 430.55 303.05 432.15C301.916 433.75 301.333 435.783 301.3 438.25L300 433.5C300.4 432.033 301.016 430.817 301.85 429.85C302.716 428.883 303.7 428.15 304.8 427.65C305.933 427.15 307.116 426.9 308.35 426.9C310.516 426.9 312.15 427.383 313.25 428.35C314.35 429.283 315.083 430.617 315.45 432.35C315.85 434.083 316.05 436.117 316.05 438.45V443.8C316.05 444.633 316.083 445.483 316.15 446.35C316.216 447.183 316.283 447.933 316.35 448.6C316.45 449.233 316.516 449.7 316.55 450L314.75 448.9L320.4 449.4L320.05 452H313.65C313.483 452 313.1 452.017 312.5 452.05C311.933 452.083 311.283 452.117 310.55 452.15C309.85 452.183 309.216 452.217 308.65 452.25ZM365.07 452.5C362.57 452.5 360.47 451.95 358.77 450.85C357.07 449.75 355.787 448.233 354.92 446.3C354.087 444.367 353.67 442.183 353.67 439.75C353.67 437.283 354.054 435.083 354.82 433.15C355.587 431.217 356.77 429.7 358.37 428.6C359.97 427.467 361.987 426.9 364.42 426.9C366.754 426.9 368.604 427.383 369.97 428.35C371.337 429.317 372.32 430.667 372.92 432.4C373.554 434.133 373.87 436.133 373.87 438.4L373.07 440H356.87V437.75L371.32 436.65L369.72 438.4C369.72 437.967 369.72 437.55 369.72 437.15C369.754 436.717 369.77 436.25 369.77 435.75C369.77 433.983 369.32 432.467 368.42 431.2C367.52 429.933 366.137 429.3 364.27 429.3C363.037 429.3 362.004 429.617 361.17 430.25C360.337 430.85 359.687 431.667 359.22 432.7C358.754 433.733 358.42 434.85 358.22 436.05C358.02 437.217 357.92 438.383 357.92 439.55C357.92 440.65 358.054 441.783 358.32 442.95C358.587 444.083 359.004 445.15 359.57 446.15C360.137 447.15 360.837 447.95 361.67 448.55C362.537 449.15 363.57 449.45 364.77 449.45C366.337 449.45 367.82 449.217 369.22 448.75C370.654 448.25 371.737 447.783 372.47 447.35L373.77 449.55C373.87 449.45 373.754 449.55 373.42 449.85C373.087 450.117 372.537 450.467 371.77 450.9C371.037 451.3 370.104 451.667 368.97 452C367.87 452.333 366.57 452.5 365.07 452.5ZM393.223 452.25L392.973 449.85L398.573 448.7L396.573 450.55C396.639 450.283 396.723 449.817 396.823 449.15C396.956 448.483 397.073 447.783 397.173 447.05C397.306 446.283 397.373 445.7 397.373 445.3V434.2C397.373 433.767 397.323 433.183 397.223 432.45C397.123 431.683 397.006 430.933 396.873 430.2C396.739 429.433 396.639 428.883 396.573 428.55L398.573 430.85L393.073 429.9L393.323 427.3H399.523L400.473 428.2L401.173 435.7L400.073 432.8C400.573 431.533 401.206 430.467 401.973 429.6C402.773 428.733 403.706 428.067 404.773 427.6C405.839 427.133 407.006 426.9 408.273 426.9C410.639 426.9 412.423 427.383 413.623 428.35C414.823 429.283 415.639 430.617 416.073 432.35C416.506 434.083 416.723 436.117 416.723 438.45V443.8C416.723 445.033 416.773 446.25 416.873 447.45C417.006 448.65 417.123 449.583 417.223 450.25L415.423 448.9L421.073 449.4L420.723 452H414.323C414.189 452 413.823 452.017 413.223 452.05C412.623 452.083 411.956 452.117 411.223 452.15C410.523 452.183 409.889 452.217 409.323 452.25L409.073 449.85L414.073 448.65L412.223 449.8C412.323 449.467 412.423 449.067 412.523 448.6C412.656 448.1 412.756 447.567 412.823 447C412.923 446.433 412.973 445.867 412.973 445.3V438.4C412.973 436.933 412.839 435.55 412.573 434.25C412.306 432.917 411.789 431.833 411.023 431C410.256 430.167 409.139 429.75 407.673 429.75C405.639 429.75 404.039 430.55 402.873 432.15C401.739 433.75 401.173 435.783 401.173 438.25V443.8C401.173 445.1 401.223 446.433 401.323 447.8C401.423 449.167 401.523 450.15 401.623 450.75L399.773 448.9L405.423 449.4L405.073 452H398.723C398.389 452 397.906 452.017 397.273 452.05C396.639 452.083 395.956 452.117 395.223 452.15C394.523 452.183 393.856 452.217 393.223 452.25ZM448.23 452.75C445.996 452.75 444.496 452.15 443.73 450.95C442.996 449.75 442.63 448.033 442.63 445.8V428.25L444.23 429.9H438.43L438.28 427.9C438.713 427.733 439.246 427.55 439.88 427.35C440.513 427.117 441.146 426.883 441.78 426.65C442.446 426.417 442.98 426.233 443.38 426.1L441.68 427.75C441.846 427.55 442.063 427.2 442.33 426.7C442.63 426.167 442.93 425.583 443.23 424.95C443.53 424.283 443.813 423.683 444.08 423.15C444.346 422.617 444.53 422.233 444.63 422L446.43 422.2V446C446.43 447.133 446.63 448.017 447.03 448.65C447.43 449.283 448.196 449.6 449.33 449.6C450.063 449.6 450.813 449.433 451.58 449.1C452.38 448.733 453.096 448.267 453.73 447.7L455.08 449.85C453.88 450.817 452.696 451.533 451.53 452C450.396 452.5 449.296 452.75 448.23 452.75ZM445.58 429.9V427.3H453.83L453.58 429.9H445.58ZM521.748 452.25L521.498 449.8L527.248 448.65L525.248 450.6C525.348 450.1 525.448 449.5 525.548 448.8C525.682 448.1 525.782 447.417 525.848 446.75C525.915 446.083 525.948 445.583 525.948 445.25V423.5C525.948 423.133 525.898 422.583 525.798 421.85C525.732 421.117 525.632 420.383 525.498 419.65C525.398 418.917 525.315 418.4 525.248 418.1L527.248 420L521.648 419.1L521.898 416.5C522.532 416.533 523.232 416.567 523.998 416.6C524.765 416.633 525.482 416.667 526.148 416.7C526.815 416.733 527.298 416.75 527.598 416.75C528.465 416.75 529.465 416.733 530.598 416.7C531.732 416.633 532.982 416.567 534.348 416.5L534.548 419.35L528.948 419.85L530.748 418.1C530.715 418.667 530.632 419.633 530.498 421C530.365 422.367 530.298 423.7 530.298 425V443.75C530.298 444.617 530.315 445.5 530.348 446.4C530.415 447.3 530.498 448.117 530.598 448.85C530.698 449.583 530.782 450.167 530.848 450.6L528.948 448.85L535.198 449.35L534.848 452H528.448C527.615 452 526.632 452.017 525.498 452.05C524.365 452.117 523.115 452.183 521.748 452.25ZM500.698 452.25L500.448 449.8L506.148 448.65L504.198 450.6C504.265 450.3 504.348 449.8 504.448 449.1C504.548 448.367 504.648 447.633 504.748 446.9C504.848 446.133 504.898 445.583 504.898 445.25V423.5C504.898 423.133 504.848 422.6 504.748 421.9C504.682 421.167 504.582 420.433 504.448 419.7C504.348 418.967 504.265 418.433 504.198 418.1L506.148 420L500.548 419.1L500.798 416.5C501.432 416.533 502.132 416.567 502.898 416.6C503.665 416.633 504.382 416.667 505.048 416.7C505.748 416.733 506.248 416.75 506.548 416.75C507.415 416.75 508.415 416.733 509.548 416.7C510.682 416.633 511.932 416.567 513.298 416.5L513.498 419.35L507.848 419.85L509.748 418.1C509.715 418.367 509.648 418.883 509.548 419.65C509.448 420.417 509.365 421.283 509.298 422.25C509.232 423.217 509.198 424.133 509.198 425V443.75C509.198 444.617 509.232 445.5 509.298 446.4C509.365 447.267 509.448 448.083 509.548 448.85C509.648 449.583 509.732 450.167 509.798 450.6L507.848 448.85L514.148 449.35L513.798 452H507.398C506.565 452 505.582 452.017 504.448 452.05C503.315 452.117 502.065 452.183 500.698 452.25ZM506.448 435.55V433.15L528.698 432.9V435.55H506.448ZM566.732 452.5C564.198 452.5 562.082 451.95 560.382 450.85C558.682 449.75 557.398 448.25 556.532 446.35C555.698 444.417 555.282 442.2 555.282 439.7C555.282 437.167 555.698 434.95 556.532 433.05C557.398 431.117 558.682 429.6 560.382 428.5C562.082 427.4 564.198 426.85 566.732 426.85C570.532 426.85 573.365 428.033 575.232 430.4C577.132 432.733 578.082 435.833 578.082 439.7C578.082 442.2 577.648 444.417 576.782 446.35C575.948 448.283 574.682 449.8 572.982 450.9C571.315 451.967 569.232 452.5 566.732 452.5ZM566.732 449.8C568.532 449.8 569.948 449.3 570.982 448.3C572.015 447.3 572.732 446.033 573.132 444.5C573.565 442.933 573.782 441.333 573.782 439.7C573.782 438.033 573.565 436.433 573.132 434.9C572.732 433.333 572.015 432.05 570.982 431.05C569.948 430.05 568.532 429.55 566.732 429.55C564.932 429.55 563.515 430.05 562.482 431.05C561.448 432.017 560.698 433.283 560.232 434.85C559.798 436.383 559.582 438 559.582 439.7C559.582 441.367 559.798 442.983 560.232 444.55C560.698 446.083 561.448 447.35 562.482 448.35C563.515 449.317 564.932 449.8 566.732 449.8ZM627.571 452.25L627.321 449.85L632.321 448.65L630.521 450.25C630.621 449.883 630.721 449.4 630.821 448.8C630.921 448.2 631.004 447.583 631.071 446.95C631.171 446.283 631.221 445.733 631.221 445.3V438.4C631.221 436.933 631.104 435.55 630.871 434.25C630.637 432.917 630.187 431.833 629.521 431C628.854 430.167 627.871 429.75 626.571 429.75C624.637 429.75 623.104 430.567 621.971 432.2C620.837 433.8 620.237 435.833 620.171 438.3L618.921 433.55C619.521 431.35 620.604 429.7 622.171 428.6C623.737 427.467 625.437 426.9 627.271 426.9C629.437 426.9 631.071 427.383 632.171 428.35C633.271 429.283 634.004 430.617 634.371 432.35C634.771 434.083 634.971 436.117 634.971 438.45V443.8C634.971 444.633 635.004 445.483 635.071 446.35C635.137 447.183 635.204 447.933 635.271 448.6C635.371 449.233 635.437 449.7 635.471 450L633.671 448.9L639.271 449.4L638.971 452H632.571C632.404 452 632.021 452.017 631.421 452.05C630.854 452.083 630.204 452.117 629.471 452.15C628.771 452.183 628.137 452.217 627.571 452.25ZM597.471 452.25L597.221 449.85L602.821 448.7L600.821 450.55C600.887 450.283 600.971 449.817 601.071 449.15C601.204 448.483 601.321 447.783 601.421 447.05C601.554 446.283 601.621 445.7 601.621 445.3V434.2C601.621 433.767 601.571 433.183 601.471 432.45C601.371 431.683 601.254 430.933 601.121 430.2C600.987 429.433 600.887 428.883 600.821 428.55L602.821 430.85L597.321 429.9L597.571 427.3H603.771L604.721 428.2L605.421 435.55V443.8C605.421 445.1 605.471 446.433 605.571 447.8C605.671 449.167 605.771 450.15 605.871 450.75L604.021 448.9L609.671 449.4L609.321 452H602.971C602.637 452 602.154 452.017 601.521 452.05C600.887 452.083 600.204 452.117 599.471 452.15C598.771 452.183 598.104 452.217 597.471 452.25ZM612.771 452.25L612.521 449.85L617.521 448.65L615.721 450.25C615.821 449.883 615.921 449.4 616.021 448.8C616.121 448.2 616.204 447.583 616.271 446.95C616.371 446.283 616.421 445.733 616.421 445.3V438.4C616.421 436.933 616.304 435.55 616.071 434.25C615.837 432.917 615.387 431.833 614.721 431C614.054 430.167 613.071 429.75 611.771 429.75C609.837 429.75 608.304 430.55 607.171 432.15C606.037 433.75 605.454 435.783 605.421 438.25L604.121 433.5C604.521 432.033 605.137 430.817 605.971 429.85C606.837 428.883 607.821 428.15 608.921 427.65C610.054 427.15 611.237 426.9 612.471 426.9C614.637 426.9 616.271 427.383 617.371 428.35C618.471 429.283 619.204 430.617 619.571 432.35C619.971 434.083 620.171 436.117 620.171 438.45V443.8C620.171 444.633 620.204 445.483 620.271 446.35C620.337 447.183 620.404 447.933 620.471 448.6C620.571 449.233 620.637 449.7 620.671 450L618.871 448.9L624.521 449.4L624.171 452H617.771C617.604 452 617.221 452.017 616.621 452.05C616.054 452.083 615.404 452.117 614.671 452.15C613.971 452.183 613.337 452.217 612.771 452.25ZM669.191 452.5C666.691 452.5 664.591 451.95 662.891 450.85C661.191 449.75 659.908 448.233 659.041 446.3C658.208 444.367 657.791 442.183 657.791 439.75C657.791 437.283 658.175 435.083 658.941 433.15C659.708 431.217 660.891 429.7 662.491 428.6C664.091 427.467 666.108 426.9 668.541 426.9C670.875 426.9 672.725 427.383 674.091 428.35C675.458 429.317 676.441 430.667 677.041 432.4C677.675 434.133 677.991 436.133 677.991 438.4L677.191 440H660.991V437.75L675.441 436.65L673.841 438.4C673.841 437.967 673.841 437.55 673.841 437.15C673.875 436.717 673.891 436.25 673.891 435.75C673.891 433.983 673.441 432.467 672.541 431.2C671.641 429.933 670.258 429.3 668.391 429.3C667.158 429.3 666.125 429.617 665.291 430.25C664.458 430.85 663.808 431.667 663.341 432.7C662.875 433.733 662.541 434.85 662.341 436.05C662.141 437.217 662.041 438.383 662.041 439.55C662.041 440.65 662.175 441.783 662.441 442.95C662.708 444.083 663.125 445.15 663.691 446.15C664.258 447.15 664.958 447.95 665.791 448.55C666.658 449.15 667.691 449.45 668.891 449.45C670.458 449.45 671.941 449.217 673.341 448.75C674.775 448.25 675.858 447.783 676.591 447.35L677.891 449.55C677.991 449.45 677.875 449.55 677.541 449.85C677.208 450.117 676.658 450.467 675.891 450.9C675.158 451.3 674.225 451.667 673.091 452C671.991 452.333 670.691 452.5 669.191 452.5ZM706.094 452.5C704.06 452.5 702.394 452.25 701.094 451.75C699.827 451.217 698.91 450.783 698.344 450.45V444L701.194 443.8V445.8C701.194 446.033 701.277 446.417 701.444 446.95C701.61 447.483 701.827 448.033 702.094 448.6C702.36 449.167 702.627 449.65 702.894 450.05L701.444 447.9C702.044 448.767 702.727 449.35 703.494 449.65C704.26 449.95 705.144 450.1 706.144 450.1C707.477 450.1 708.544 449.783 709.344 449.15C710.144 448.517 710.544 447.517 710.544 446.15C710.544 444.917 710.01 443.95 708.944 443.25C707.877 442.517 706.644 441.817 705.244 441.15C704.41 440.75 703.577 440.333 702.744 439.9C701.91 439.433 701.144 438.917 700.444 438.35C699.777 437.75 699.227 437.05 698.794 436.25C698.394 435.45 698.194 434.5 698.194 433.4C698.194 431.333 698.927 429.733 700.394 428.6C701.894 427.433 703.727 426.85 705.894 426.85C706.994 426.85 708.16 426.933 709.394 427.1C710.627 427.233 711.827 427.433 712.994 427.7L712.944 434.75L710.094 434.6V432.85C710.094 432.65 709.994 432.283 709.794 431.75C709.627 431.217 709.427 430.667 709.194 430.1C708.994 429.5 708.827 429.033 708.694 428.7L710.394 430.55C709.56 430.083 708.844 429.767 708.244 429.6C707.644 429.433 706.877 429.35 705.944 429.35C704.777 429.35 703.827 429.65 703.094 430.25C702.36 430.817 701.994 431.633 701.994 432.7C701.994 433.867 702.527 434.817 703.594 435.55C704.66 436.25 705.894 436.917 707.294 437.55C708.16 437.95 709.01 438.383 709.844 438.85C710.677 439.317 711.444 439.85 712.144 440.45C712.844 441.017 713.394 441.7 713.794 442.5C714.227 443.267 714.444 444.183 714.444 445.25C714.444 447.883 713.694 449.75 712.194 450.85C710.694 451.95 708.66 452.5 706.094 452.5Z" fill="#727272"/>
<defs>
<clipPath id="clip0_2142_94">
<rect x="300" y="27" width="200" height="200" rx="30" fill="white"/>
</clipPath>
</defs>
</svg>
