<svg width="24" height="24" viewBox="0 0 24 24" fill="none" xmlns="http://www.w3.org/2000/svg">
<path d="M12 2.99991L12.394 2.07991C12.2695 2.02654 12.1355 1.99902 12 1.99902C11.8645 1.99902 11.7305 2.02654 11.606 2.07991L12 2.99991ZM12 20.9999L11.504 21.8679C11.6551 21.9542 11.826 21.9996 12 21.9996C12.174 21.9996 12.3449 21.9542 12.496 21.8679L12 20.9999ZM11.606 2.08091L5.212 4.81991L6 6.65991L12.394 3.91991L11.606 2.08091ZM4 6.65891V13.5189H6V6.65891H4ZM7.527 19.5959L11.504 21.8679L12.496 20.1319L8.519 17.8589L7.527 19.5959ZM12.496 21.8679L16.473 19.5959L15.481 17.8589L11.504 20.1319L12.496 21.8679ZM20 13.5179V6.65991H18V13.5199L20 13.5179ZM18.788 4.82091L12.394 2.08091L11.606 3.91891L18 6.65991L18.788 4.82091ZM20 6.65991C20 6.26857 19.8851 5.88584 19.6697 5.55913C19.4542 5.23243 19.1477 4.9751 18.788 4.82091L18 6.65991H20ZM16.473 19.5959C17.5446 18.9835 18.4353 18.0997 19.0547 17.0321C19.6741 15.9645 20.0002 14.7522 20 13.5179H18C17.9999 14.3994 17.7667 15.2652 17.3242 16.0275C16.8816 16.7899 16.2454 17.4217 15.48 17.8589L16.473 19.5959ZM4 13.5179C3.99994 14.752 4.32615 15.9642 4.94554 17.0316C5.56494 18.099 6.45551 18.9836 7.527 19.5959L8.519 17.8589C7.75406 17.4217 7.11823 16.7902 6.67587 16.0282C6.23352 15.2663 6.00036 14.401 6 13.5199L4 13.5179ZM5.212 4.81991C4.85216 4.97417 4.5455 5.23165 4.33005 5.55855C4.11461 5.88545 3.99985 6.2684 4 6.65991H6L5.212 4.81991Z" fill="#4B5563"/>
<path d="M15 10L11 14L9 12" stroke="#4B5563" stroke-width="2" stroke-linecap="round" stroke-linejoin="round"/>
</svg>
